<svg width="80" height="80" viewBox="0 0 80 80" fill="none" xmlns="http://www.w3.org/2000/svg">
<path d="M72.447 42.507L64.6777 43.0415C62.592 43.1943 61.7317 45.7395 63.322 47.063L69.2922 51.95C70.596 53.019 72.5772 52.459 73.0987 50.881L74.8715 45.5615C75.419 43.9832 74.1415 42.3797 72.447 42.507ZM54.3735 6.72871L52.5735 13.9787C52.0735 15.9287 54.2235 17.5037 55.9235 16.4287L62.2735 12.4787C63.6485 11.6287 63.7235 9.62871 62.3985 8.6787L57.9485 5.45371C56.6235 4.47871 54.7735 5.15371 54.3735 6.72871ZM16.0764 12.4867L22.4014 16.4367C24.1014 17.5117 26.2512 15.9617 25.7762 13.9867L23.9764 6.73668C23.5764 5.16168 21.7264 4.48671 20.4014 5.43671L15.9514 8.66171C14.6264 9.66171 14.7014 11.6367 16.0764 12.4867ZM10.4631 51.782L16.1881 46.982C17.7381 45.682 16.9131 43.157 14.9131 43.032L7.46309 42.507C5.83809 42.382 4.61309 43.957 5.11309 45.507L6.81309 50.732C7.31309 52.282 9.23809 52.832 10.4631 51.782ZM44.488 70.0117L41.688 63.0867C40.938 61.2117 38.288 61.2117 37.538 63.0867L34.738 70.0117C34.138 71.5117 35.238 73.1618 36.863 73.1618H42.363C43.988 73.1367 45.088 71.5117 44.488 70.0117Z" fill="#FCD53F"/>
<path d="M43.9113 8.3105L48.2282 17.6097C49.0425 19.3455 50.646 20.5606 52.5208 20.8334L62.6598 22.3956C67.2482 23.09 69.0983 28.719 65.8913 32.042L58.17 40.002C56.9118 41.2915 56.3445 43.1265 56.6405 44.912L58.4167 55.8478C59.1815 60.5595 54.1982 64.0808 50.0293 61.7745L41.5185 57.0383C39.7915 56.071 37.7195 56.071 35.9925 57.0383L27.4817 61.7745C23.3127 64.0808 18.3296 60.5595 19.0943 55.8478L20.8705 44.912C21.1665 43.1265 20.5991 41.2915 19.341 40.002L11.6196 32.042C8.38798 28.6943 10.2628 23.09 14.8512 22.3956L24.9902 20.8334C26.865 20.5358 28.4685 19.3207 29.2825 17.6097L33.5998 8.3105C35.6473 3.8965 41.8638 3.8965 43.9113 8.3105Z" fill="#FCD53F"/>
</svg>
