<svg width="20" height="20" viewBox="0 0 20 20" fill="none" xmlns="http://www.w3.org/2000/svg">
<path fill-rule="evenodd" clip-rule="evenodd" d="M6.73666 2.16667C6.87166 1.8625 7.17249 1.66667 7.50583 1.66667H14.1533C14.7783 1.66667 15.1858 2.325 14.9058 2.885L13.015 6.66667H15.8133C16.5633 6.66667 16.9383 7.57334 16.4083 8.10334L6.44749 18.0642C5.81916 18.6925 4.77249 18.0458 5.05416 17.2033L7.17749 10.8333H4.17916C4.03895 10.8333 3.90096 10.7983 3.77772 10.7314C3.65449 10.6645 3.54992 10.5679 3.4735 10.4504C3.39709 10.3328 3.35125 10.198 3.34016 10.0582C3.32907 9.91848 3.35307 9.77814 3.40999 9.65L6.73666 2.16667Z" fill="white"/>
</svg>
