<svg width="20" height="20" viewBox="0 0 20 20" fill="none" xmlns="http://www.w3.org/2000/svg">
<path d="M8.33333 17.5H11.6667C11.6667 18.4167 10.9167 19.1667 10 19.1667C9.08333 19.1667 8.33333 18.4167 8.33333 17.5ZM17.5 15.8333V16.6667H2.5V15.8333L4.16667 14.1667V9.16666C4.16667 6.58333 5.83333 4.33333 8.33333 3.58333V3.33333C8.33333 2.41666 9.08333 1.66666 10 1.66666C10.9167 1.66666 11.6667 2.41666 11.6667 3.33333V3.58333C14.1667 4.33333 15.8333 6.58333 15.8333 9.16666V14.1667L17.5 15.8333ZM14.1667 9.16666C14.1667 6.83333 12.3333 5 10 5C7.66667 5 5.83333 6.83333 5.83333 9.16666V15H14.1667V9.16666Z" fill="white"/>
</svg>
